<svg height="512pt" viewBox="0 -4 512 512" width="512pt" xmlns="http://www.w3.org/2000/svg"><path d="m52.964844 423.722656-7.160156 28.628906c-.980469 3.929688-4.511719 6.683594-8.5625 6.683594h-21.519532c-4.050781 0-7.578125-2.753906-8.5625-6.683594l-7.160156-28.628906 26.484375-17.652344zm0 0" fill="#b0d3f0"/><path d="m35.308594 353.101562h70.621094v52.96875h-70.621094zm0 0" fill="#bdc3c7"/><path d="m141.242188 344.277344v88.273437h-35.3125c-9.738282-.027343-17.625-7.914062-17.652344-17.652343v-70.621094zm0 0" fill="#95a5a5"/><path d="m88.277344 353.101562v-176.550781c0-9.75 7.902344-17.652343 17.652344-17.652343h35.3125v194.203124zm0 0" fill="#7f8c8d"/><path d="m132.414062 467.863281 21.1875 28.246094c3.332032 4.445313 8.566407 7.0625 14.121094 7.0625h282.484375c5.558594 0 10.789063-2.617187 14.125-7.0625l21.183594-28.246094-176.550781-17.65625zm0 0" fill="#7f8c8d"/><path d="m8.828125 344.277344c-3.253906-.003906-6.246094-1.796875-7.777344-4.667969-1.535156-2.871094-1.367187-6.351563.441407-9.058594l52.964843-79.449219c1.75-2.625 4.769531-4.117187 7.914063-3.910156 3.148437.203125 5.949218 2.070313 7.347656 4.898438 1.394531 2.828125 1.179688 6.183594-.574219 8.808594l-52.964843 79.449218c-1.636719 2.457032-4.398438 3.929688-7.351563 3.929688zm0 0" fill="#95a5a5"/><path d="m132.414062 97.101562h353.101563v370.761719h-353.101563zm0 0" fill="#90bae1"/><path d="m397.242188 379.585938c-4.875 0-8.828126-3.953126-8.828126-8.828126 0-43.878906-35.570312-79.449218-79.449218-79.449218s-79.449219 35.570312-79.449219 79.449218c0 4.875-3.949219 8.828126-8.824219 8.828126-4.878906 0-8.828125-3.953126-8.828125-8.828126 0-53.628906 43.472657-97.101562 97.101563-97.101562s97.105468 43.472656 97.105468 97.101562c0 2.34375-.929687 4.585938-2.585937 6.242188s-3.902344 2.585938-6.242187 2.585938zm0 0" fill="#95a5a5"/><path d="m185.378906 150.070312h-17.65625c-4.875 0-8.824218-3.953124-8.824218-8.828124s3.949218-8.828126 8.824218-8.828126h17.65625c4.875 0 8.828125 3.953126 8.828125 8.828126s-3.953125 8.828124-8.828125 8.828124zm0 0" fill="#bdc3c7"/><path d="m335.449219 150.070312h-114.757813c-4.878906 0-8.828125-3.953124-8.828125-8.828124s3.949219-8.828126 8.828125-8.828126h114.757813c4.875 0 8.828125 3.953126 8.828125 8.828126s-3.953125 8.828124-8.828125 8.828124zm0 0" fill="#bdc3c7"/><path d="m0 335.449219h35.308594c9.753906 0 17.65625 7.902343 17.65625 17.652343v70.621094h-52.964844zm0 0" fill="#7f8c8d"/><path d="m361.929688 370.757812c0 29.253907-23.710938 52.964844-52.964844 52.964844-29.25 0-52.964844-23.710937-52.964844-52.964844 0-29.25 23.714844-52.964843 52.964844-52.964843 29.253906 0 52.964844 23.714843 52.964844 52.964843zm0 0" fill="#7f8c8d"/><g fill="#bdc3c7"><path d="m308.964844 344.277344c-4.875 0-8.828125-3.953125-8.828125-8.828125v-17.65625c0-4.875 3.953125-8.828125 8.828125-8.828125s8.828125 3.953125 8.828125 8.828125v17.65625c0 4.875-3.953125 8.828125-8.828125 8.828125zm0 0"/><path d="m308.964844 432.550781c-4.875 0-8.828125-3.953125-8.828125-8.828125v-17.652344c0-4.875 3.953125-8.828124 8.828125-8.828124s8.828125 3.953124 8.828125 8.828124v17.652344c0 4.875-3.953125 8.828125-8.828125 8.828125zm0 0"/><path d="m278.378906 361.929688c-1.550781.003906-3.074218-.402344-4.414062-1.179688l-15.289063-8.828125c-4.1875-2.457031-5.609375-7.828125-3.179687-12.03125 2.425781-4.203125 7.789062-5.65625 12.007812-3.257813l15.289063 8.824219c3.457031 2 5.144531 6.070313 4.113281 9.929688-1.035156 3.859375-4.53125 6.542969-8.527344 6.542969zm0 0"/><path d="m354.867188 406.070312c-1.546876 0-3.070313-.410156-4.410157-1.183593l-15.292969-8.828125c-4.183593-2.453125-5.605468-7.828125-3.179687-12.03125 2.425781-4.199219 7.789063-5.65625 12.007813-3.257813l15.289062 8.828125c3.460938 1.996094 5.148438 6.070313 4.113281 9.929688-1.035156 3.859375-4.53125 6.542968-8.527343 6.542968zm0 0"/><path d="m263.105469 406.070312c-3.996094 0-7.492188-2.683593-8.527344-6.542968-1.03125-3.859375.65625-7.933594 4.113281-9.929688l15.289063-8.828125c4.21875-2.398437 9.582031-.941406 12.007812 3.257813 2.429688 4.203125 1.007813 9.578125-3.179687 12.03125l-15.289063 8.828125c-1.339843.773437-2.863281 1.183593-4.414062 1.183593zm0 0"/><path d="m339.554688 361.929688c-3.996094 0-7.492188-2.683594-8.527344-6.542969s.652344-7.929688 4.113281-9.929688l15.289063-8.824219c2.730468-1.605468 6.113281-1.617187 8.859374-.039062 2.746094 1.574219 4.4375 4.503906 4.433594 7.671875-.007812 3.167969-1.710937 6.089844-4.464844 7.65625l-15.289062 8.828125c-1.34375.777344-2.867188 1.183594-4.414062 1.179688zm0 0"/></g><path d="m220.691406 44.050781v-26.394531c.027344-9.738281 7.914063-17.6289062 17.652344-17.65625h141.242188c9.738281.0273438 17.625 7.917969 17.65625 17.65625v25.777344zm0 0" fill="#7f8c8d"/><path d="m160.371094 79.449219c0-24.375 67.1875-44.140625 150.070312-44.140625 82.878906 0 150.066406 19.765625 150.066406 44.140625zm0 0" fill="#7f8c8d"/><path d="m123.585938 70.621094h370.757812c9.75 0 17.65625 7.902344 17.65625 17.65625 0 9.75-7.90625 17.652344-17.65625 17.652344h-370.757812c-9.75 0-17.65625-7.902344-17.65625-17.652344 0-9.753906 7.90625-17.65625 17.65625-17.65625zm0 0" fill="#95a5a5"/></svg>