<svg xmlns="http://www.w3.org/2000/svg" width="60" height="60" viewBox="0 0 60 60"><defs><style>.a{fill:#03f;opacity:0.09;}.b{fill:#388cd0;}</style></defs><g transform="translate(-1142 -146)"><circle class="a" cx="30" cy="30" r="30" transform="translate(1142 146)"/><g transform="translate(1145.596 155.681)"><path class="b" d="M23.395,37.231a1.187,1.187,0,0,0,1.435-.439L37.4,18.632a1.168,1.168,0,0,0,.088-1.23,1.222,1.222,0,0,0-1.054-.644L28.638,16.7,30.893,4.748a1.2,1.2,0,0,0-.674-1.318,1.185,1.185,0,0,0-1.435.351L15.457,20.565a1.163,1.163,0,0,0-.146,1.259,1.2,1.2,0,0,0,1.084.674l8.611.059L22.692,35.913A1.151,1.151,0,0,0,23.395,37.231Zm-4.54-17.106L27.642,9.054,26,17.695a1.221,1.221,0,0,0,1.172,1.435l6.942.029L25.943,30.992l1.611-9.432a1.152,1.152,0,0,0-.264-.967,1.1,1.1,0,0,0-.879-.41l-7.557-.059Z" transform="translate(0 0)"/></g></g></svg>