<svg xmlns="http://www.w3.org/2000/svg" width="60" height="60" viewBox="0 0 60 60"><defs><style>.a{fill:#03f;opacity:0.09;}.b{fill:#388cd0;}</style></defs><g transform="translate(-1142 -146)"><circle class="a" cx="30" cy="30" r="30" transform="translate(1142 146)"/><g transform="translate(1155 159)"><path class="b" d="M29.021,4.979A17,17,0,0,0,4.979,29.021,17,17,0,0,0,29.021,4.979ZM26.442,20.347a.878.878,0,1,1-.878-.878A.879.879,0,0,1,26.442,20.347ZM7.558,13.653a.878.878,0,1,1,.878.878.879.879,0,0,1-.878-.878ZM28.487,26.646V24.624a1,1,0,0,0-1.992,0v3.989q-.581.476-1.209.893V25.952a1,1,0,0,0-1.992,0v4.67a14.9,14.9,0,0,1-2.123.8V14.175H23.74a2.871,2.871,0,1,0,.155-1.992h-3.72a1,1,0,0,0-1,1v18.67a15.012,15.012,0,0,1-17-17.2H5.745a2.87,2.87,0,1,0,0-1.992H2.634a15,15,0,0,1,2.879-5.3V8.629a1,1,0,0,0,1.992,0V5.386q.581-.475,1.208-.893V7.3a1,1,0,0,0,1.992,0V3.378A14.9,14.9,0,0,1,12.6,2.651V20.127H10.192a2.87,2.87,0,1,0,0,1.992h3.4a1,1,0,0,0,1-1V2.187A15.012,15.012,0,0,1,31.823,19.351H28.255a2.87,2.87,0,1,0,0,1.992h3.111a15,15,0,0,1-2.879,5.3ZM26.5,12.509a.878.878,0,1,1-.878.878A.879.879,0,0,1,26.5,12.509ZM8.378,21.123a.878.878,0,1,1-.878-.878A.879.879,0,0,1,8.378,21.123Zm0,0" transform="translate(0)"/><path class="b" d="M29.6,6.094a2.869,2.869,0,0,0-2.7,3.831l-3.189,2.663a1,1,0,0,0-.357.764V25.994l-1.367.739a2.87,2.87,0,1,0,.948,1.752l1.888-1.02a1,1,0,0,0,.523-.876V13.819l2.832-2.365A2.87,2.87,0,1,0,29.6,6.094ZM19.212,28.887a.878.878,0,1,1,.878.878A.879.879,0,0,1,19.212,28.887ZM28.723,8.964a.878.878,0,1,1,.878.878A.879.879,0,0,1,28.723,8.964Zm0,0" transform="translate(-7.462 -2.641)"/></g></g></svg>