<svg xmlns="http://www.w3.org/2000/svg" width="60" height="60" viewBox="0 0 60 60"><defs><style>.a,.b{fill:#388cd0;}.a{opacity:0.09;}</style></defs><g transform="translate(-1142 -146)"><circle class="a" cx="30" cy="30" r="30" transform="translate(1142 146)"/><g transform="translate(1154.387 157.871)"><g transform="translate(8.302 6.203)"><path class="b" d="M37.694,15.4a1.215,1.215,0,0,0-1.058-.846l-8.627-.8L26.394,10a.516.516,0,0,0-.948.408l1.737,4.032a.516.516,0,0,0,.426.31l8.932.828a.2.2,0,0,1,.113.349l-6.739,5.92a.516.516,0,0,0-.163.5L31.725,31.1a.2.2,0,0,1-.3.216l-7.713-4.58a.516.516,0,0,0-.527,0l-7.713,4.58a.2.2,0,0,1-.3-.216L16.2,26.582a.516.516,0,1,0-1.007-.227l-1.018,4.517a1.238,1.238,0,0,0,1.2,1.506A1.232,1.232,0,0,0,16,32.2l7.449-4.423L30.9,32.2a1.232,1.232,0,0,0,1.83-1.33l-1.9-8.452L37.335,16.7A1.215,1.215,0,0,0,37.694,15.4Z" transform="translate(-14.14 -9.687)"/></g><g transform="translate(3.308 1.564)"><path class="b" d="M22.035,4.769l-.964-2.238a1.232,1.232,0,0,0-2.263,0l-3.427,7.957-8.627.8a1.232,1.232,0,0,0-.7,2.152l6.509,5.718-.423,1.877a.516.516,0,1,0,1.007.227l.49-2.176a.516.516,0,0,0-.163-.5l-6.739-5.92a.2.2,0,0,1,.113-.349l8.932-.828a.516.516,0,0,0,.426-.31l3.548-8.239a.2.2,0,0,1,.367,0l.964,2.238a.516.516,0,1,0,.948-.408Z" transform="translate(-5.635 -1.786)"/></g><g transform="translate(5.944 1.248)"><path class="b" d="M16.141,8.1c-.243-.535-2.4-5.256-3.059-6.177a1.633,1.633,0,0,0-2.65,1.908c.663.921,4.457,4.46,4.888,4.861a.516.516,0,0,0,.821-.591ZM11.269,3.232a.6.6,0,0,1,.486-.952.61.61,0,0,1,.1.008.6.6,0,0,1,.391.242,38.607,38.607,0,0,1,1.822,3.558A38.659,38.659,0,0,1,11.269,3.232Z" transform="translate(-10.125 -1.248)"/></g><g transform="translate(23.22 1.249)"><path class="b" d="M44.934,1.557a1.633,1.633,0,0,0-2.279.371c-.663.921-2.816,5.642-3.059,6.177a.516.516,0,0,0,.821.591c.43-.4,4.224-3.94,4.888-4.861A1.634,1.634,0,0,0,44.934,1.557Zm-.466,1.676a38.671,38.671,0,0,1-2.8,2.857,38.644,38.644,0,0,1,1.822-3.558.6.6,0,0,1,.391-.242.61.61,0,0,1,.1-.008.6.6,0,0,1,.486.952Z" transform="translate(-39.55 -1.249)"/></g><g transform="translate(26.708 19.244)"><path class="b" d="M53.831,33.753a1.622,1.622,0,0,0-.949-.813h0c-1.079-.352-6.231-.968-6.814-1.038a.516.516,0,0,0-.314.962c.512.288,5.037,2.828,6.116,3.18a1.632,1.632,0,0,0,1.962-2.291Zm-.884.926a.6.6,0,0,1-.757.385,38.666,38.666,0,0,1-3.571-1.8,38.627,38.627,0,0,1,3.944.655.6.6,0,0,1,.385.757Z" transform="translate(-45.491 -31.899)"/></g><g transform="translate(0 19.244)"><path class="b" d="M8.493,32.255a.516.516,0,0,0-.551-.352c-.584.069-5.736.686-6.815,1.038h0a1.633,1.633,0,1,0,1.012,3.1c1.079-.352,5.6-2.891,6.116-3.18A.516.516,0,0,0,8.493,32.255ZM1.819,35.063a.6.6,0,0,1-.372-1.142,38.651,38.651,0,0,1,3.944-.655A38.619,38.619,0,0,1,1.819,35.063Z" transform="translate(0 -31.899)"/></g><g transform="translate(16.015 26.161)"><path class="b" d="M29.416,44.1a.516.516,0,0,0-1.012,0c-.115.577-1.127,5.666-1.127,6.8a1.633,1.633,0,0,0,3.265,0C30.543,49.762,29.532,44.673,29.416,44.1Zm-.506,7.4a.6.6,0,0,1-.6-.6,38.649,38.649,0,0,1,.6-3.952,38.653,38.653,0,0,1,.6,3.952A.6.6,0,0,1,28.91,51.5Z" transform="translate(-27.278 -43.682)"/></g></g></g></svg>