<svg xmlns="http://www.w3.org/2000/svg" width="60" height="60" viewBox="0 0 60 60"><defs><style>.a{fill:#5ad038;opacity:0.09;}.b{fill:#388cd0;}</style></defs><g transform="translate(0)"><circle class="a" cx="30" cy="30" r="30" transform="translate(0)"/><g transform="translate(11.035 11.13)"><path class="b" d="M20.862.15V5.84A13.269,13.269,0,0,1,32.241,18.925a13.205,13.205,0,0,1-.948,4.741l4.931,2.845a17.344,17.344,0,0,0,1.707-7.776A18.738,18.738,0,0,0,20.862.15ZM18.965,32.2a13.247,13.247,0,0,1-1.9-26.361V.15A18.65,18.65,0,0,0,0,18.925,19.021,19.021,0,0,0,18.965,37.89a19.217,19.217,0,0,0,15.362-7.776L29.4,27.27A13.425,13.425,0,0,1,18.965,32.2Z" transform="translate(0 -0.15)"/></g></g></svg>