<svg xmlns="http://www.w3.org/2000/svg" width="60" height="60" viewBox="0 0 60 60"><defs><style>.a,.b{fill:#388cd0;}.a{opacity:0.09;}.b{stroke:#388cd0;stroke-width:0.5px;}</style></defs><circle class="a" cx="30" cy="30" r="30"/><g transform="translate(13 16)"><path class="b" d="M28.427,19.8a3.966,3.966,0,0,0-3.962,3.962v1.771a3.962,3.962,0,1,0,7.924,0V23.766A3.966,3.966,0,0,0,28.427,19.8Zm3.121,5.733a3.121,3.121,0,1,1-6.242,0V23.766a3.121,3.121,0,1,1,6.242,0Z" transform="translate(-11.599 -12.523)"/><path class="b" d="M12.189,48.384H25.338a.421.421,0,0,0,.421-.421v-1.35h9.118a.421.421,0,0,0,.421-.421V42.705a3.911,3.911,0,0,0-3.663-3.9c-.224-.017-.336.12-.454.264a2.582,2.582,0,0,1-4.075-.1.421.421,0,0,0-.349-.171,3.866,3.866,0,0,0-2,.613,4.4,4.4,0,0,0-3.133-1.6c-.22-.012-.325.117-.459.28a3.01,3.01,0,0,1-4.75-.116.425.425,0,0,0-.349-.171,4.381,4.381,0,0,0-3.04,1.326c-.09.092-.174.187-.255.285A3.883,3.883,0,0,0,10.9,38.8c-.224-.017-.336.12-.454.264a2.582,2.582,0,0,1-4.075-.1.422.422,0,0,0-.349-.171,3.909,3.909,0,0,0-3.81,3.907v3.488a.421.421,0,0,0,.421.421h9.132v1.35a.421.421,0,0,0,.42.421ZM26.572,39.65a3.424,3.424,0,0,0,5.206.012,3.071,3.071,0,0,1,2.677,3.043v3.067h-8.7V42.208a4.38,4.38,0,0,0-.535-2.1,3.024,3.024,0,0,1,1.35-.457Zm-10.7-.994a3.852,3.852,0,0,0,5.9.012,3.569,3.569,0,0,1,3.143,3.539v5.335H12.609V42.208a3.565,3.565,0,0,1,3.268-3.552ZM3.056,45.772V42.705a3.069,3.069,0,0,1,2.785-3.055,3.424,3.424,0,0,0,5.206.012,3.05,3.05,0,0,1,1.25.451,4.384,4.384,0,0,0-.53,2.1v3.564Z" transform="translate(-1.935 -20.341)"/><path class="b" d="M50.6,28.875v-1.55a3.52,3.52,0,1,0-7.041,0v1.55a3.52,3.52,0,0,0,7.041,0Zm-6.2,0v-1.55a2.679,2.679,0,0,1,5.358,0v1.55a2.682,2.682,0,0,1-2.679,2.679h0A2.682,2.682,0,0,1,44.4,28.875Z" transform="translate(-19.892 -14.261)"/><path class="b" d="M13.949,28.875v-1.55a3.52,3.52,0,1,0-7.041,0v1.55a3.52,3.52,0,0,0,7.041,0Zm-6.2,0v-1.55a2.679,2.679,0,1,1,5.358,0v1.55a2.682,2.682,0,0,1-2.679,2.679h0A2.682,2.682,0,0,1,7.75,28.875Z" transform="translate(-3.974 -14.261)"/><path class="b" d="M50.774,14.173V9.793a1.624,1.624,0,0,0-1.622-1.622H38.141a1.624,1.624,0,0,0-1.622,1.622v4.38A1.624,1.624,0,0,0,38.141,15.8h.489a2.737,2.737,0,0,0,1.577,2.179.424.424,0,0,0,.255.042.438.438,0,0,0,.359-.331,2.319,2.319,0,0,0,.056-.388c.091-.975.3-1.5,1.136-1.5h7.14a1.624,1.624,0,0,0,1.622-1.621Zm-.841,0a.782.782,0,0,1-.781.781h-7.14a1.918,1.918,0,0,0-1.938,1.94,2.237,2.237,0,0,1-.62-1.258.832.832,0,0,0-.826-.682h-.489a.782.782,0,0,1-.781-.781V9.793a.782.782,0,0,1,.781-.781H49.152a.782.782,0,0,1,.781.781Z" transform="translate(-16.834 -7.47)"/><path class="b" d="M14.353,6.932H3.341A1.624,1.624,0,0,0,1.72,8.554v5.081a1.624,1.624,0,0,0,1.622,1.622h7.217a2.737,2.737,0,0,0,1.577,2.179.424.424,0,0,0,.256.042.438.438,0,0,0,.359-.331,1.791,1.791,0,0,0,.015-.578c-.026-.375-.061-.889.164-1.13a.791.791,0,0,1,.592-.183h.832a1.624,1.624,0,0,0,1.622-1.622V8.554a1.624,1.624,0,0,0-1.622-1.622Zm.781,6.7a.782.782,0,0,1-.781.781h-.832a1.577,1.577,0,0,0-1.207.45,1.909,1.909,0,0,0-.408,1.39,2.31,2.31,0,0,1-.522-1.158.832.832,0,0,0-.826-.682H3.341a.782.782,0,0,1-.781-.781V8.554a.782.782,0,0,1,.781-.781H14.353a.782.782,0,0,1,.781.781Z" transform="translate(-1.72 -6.932)"/></g></svg>