<svg xmlns="http://www.w3.org/2000/svg" width="60" height="60" viewBox="0 0 60 60"><defs><style>.a{fill:#388cd0;opacity:0.09;}.b{fill:#03f;}</style></defs><g transform="translate(-1142 -146)"><circle class="a" cx="30" cy="30" r="30" transform="translate(1142 146)"/><g transform="translate(1157.355 159.17)"><path class="b" d="M8.472,23.56c5.428,0,8.417-3.189,8.417-8.978,0-5.421-7.673-14.039-8-14.4a.579.579,0,0,0-.835,0c-.327.364-8,8.982-8,14.4,0,5.79,2.989,8.978,8.417,8.978Zm0-22.151c1.606,1.885,7.295,8.863,7.295,13.173,0,3.584-1.266,7.856-7.295,7.856s-7.295-4.272-7.295-7.856C1.177,10.272,6.865,3.294,8.472,1.409Zm0,0" transform="translate(0 0)"/><path class="b" d="M39.114,32.585c3.21,0,5.05-2.142,5.05-5.878,0-3.508-4.451-8.33-4.64-8.533a.578.578,0,0,0-.821,0c-.189.2-4.64,5.026-4.64,8.533C34.064,30.443,35.9,32.585,39.114,32.585Zm0-13.182c1.082,1.259,3.928,4.808,3.928,7.3,0,3.155-1.322,4.755-3.928,4.755s-3.928-1.6-3.928-4.755C35.186,24.212,38.031,20.663,39.114,19.4Zm0,0" transform="translate(-14.93 -7.903)"/><path class="b" d="M25.568,40.191c-.143.162-3.507,4-3.507,6.544,0,2.853,1.432,4.489,3.928,4.489s3.928-1.636,3.928-4.489c0-2.54-3.364-6.382-3.507-6.544a.58.58,0,0,0-.842,0Zm.421,9.911c-1.861,0-2.806-1.133-2.806-3.367,0-1.525,1.756-4.008,2.806-5.3,1.051,1.291,2.806,3.774,2.806,5.3C28.794,48.969,27.85,50.1,25.989,50.1Zm0,0" transform="translate(-9.66 -17.564)"/><path class="b" d="M8.977,31.417a.546.546,0,0,0,.056,0,.561.561,0,0,0,.056-1.12,4.111,4.111,0,0,1-3-1.531c-1.492-1.946-1-5.083-.994-5.114a.561.561,0,0,0-1.106-.184c-.025.148-.581,3.64,1.206,5.976a5.186,5.186,0,0,0,3.78,1.97Zm0,0" transform="translate(-1.683 -10.105)"/><path class="b" d="M41.627,36.492a3.907,3.907,0,0,0,2.745-1.182,3.354,3.354,0,0,0,.614-2.838.561.561,0,0,0-1.106.185,2.3,2.3,0,0,1-.36,1.923,2.794,2.794,0,0,1-1.892.79.561.561,0,1,0,0,1.122Zm0,0" transform="translate(-18.003 -14.055)"/><path class="b" d="M27.316,52.74a.644.644,0,0,1-.31-.931.561.561,0,0,0-1-.5,1.766,1.766,0,0,0,.812,2.439.561.561,0,1,0,.5-1Zm0,0" transform="translate(-11.298 -22.387)"/></g></g></svg>