<svg xmlns="http://www.w3.org/2000/svg" width="31.55" height="33.491" viewBox="0 0 31.55 33.491"><defs><style>.a{fill:#388cd0;}</style></defs><g transform="translate(0)"><g transform="translate(9.184 15.699)"><path class="a" d="M13.706,11.147V7.892a4.906,4.906,0,1,0-9.812,0v3.255A2.939,2.939,0,0,0,1.931,13.91v3.925a2.947,2.947,0,0,0,2.944,2.944h7.85a2.947,2.947,0,0,0,2.944-2.944V13.91A2.939,2.939,0,0,0,13.706,11.147Zm-2.944,5.706H6.837a.981.981,0,1,1,0-1.962h3.925a.981.981,0,1,1,0,1.962Zm.981-5.887H5.856V7.892a2.944,2.944,0,1,1,5.887,0Z" transform="translate(-1.931 -2.986)"/></g><g transform="translate(3.016 3.925)"><path class="a" d="M26.131,6.21A16.66,16.66,0,0,0,.986,6.752.981.981,0,1,0,2.493,8.01a14.7,14.7,0,0,1,22.188-.477A.981.981,0,1,0,26.131,6.21Z" transform="translate(-0.758 -0.746)"/></g><g transform="translate(6.03 7.85)"><path class="a" d="M20.787,5.671a12.739,12.739,0,0,0-19.228.414A.981.981,0,1,0,3.066,7.343a10.778,10.778,0,0,1,16.271-.351.981.981,0,1,0,1.451-1.32Z" transform="translate(-1.331 -1.493)"/></g><g transform="translate(9.043 11.774)"><path class="a" d="M15.445,5.132a8.82,8.82,0,0,0-13.312.287A.981.981,0,1,0,3.639,6.676a6.86,6.86,0,0,1,10.355-.223.981.981,0,0,0,1.451-1.32Z" transform="translate(-1.904 -2.239)"/></g><path class="a" d="M31.478,6.748A20.589,20.589,0,0,0,.414,7.415a.981.981,0,0,0,1.5,1.259,18.626,18.626,0,0,1,28.11-.6.981.981,0,1,0,1.451-1.322Z" transform="translate(-0.185 0)"/></g></svg>