<svg xmlns="http://www.w3.org/2000/svg" width="32.908" height="33.491" viewBox="0 0 32.908 33.491"><defs><style>.a{fill:#388cd0;}</style></defs><g transform="translate(0 0)"><path class="a" d="M6.129.969a.568.568,0,1,0-.8-.8,16.48,16.48,0,0,0,0,23.28.568.568,0,1,0,.8-.8A15.344,15.344,0,0,1,6.129.969Z" transform="translate(-0.513 0)"/><path class="a" d="M49.267.166a.568.568,0,1,0-.8.8,15.343,15.343,0,0,1,0,21.675.568.568,0,1,0,.8.8,16.479,16.479,0,0,0,0-23.28Z" transform="translate(-21.173 0)"/><path class="a" d="M11.132,5.211a.568.568,0,0,0-.8-.8,13.07,13.07,0,0,0,0,18.464.568.568,0,0,0,.8-.8A11.934,11.934,0,0,1,11.132,5.211Z" transform="translate(-3.106 -1.834)"/><path class="a" d="M45.025,4.408a.568.568,0,0,0-.8.8,11.934,11.934,0,0,1,0,16.859.568.568,0,1,0,.8.8A13.07,13.07,0,0,0,45.025,4.408Z" transform="translate(-19.339 -1.834)"/><path class="a" d="M16.132,8.651a.567.567,0,0,0-.8,0,9.66,9.66,0,0,0,0,13.647.568.568,0,0,0,.8-.8,8.524,8.524,0,0,1,0-12.042A.569.569,0,0,0,16.132,8.651Z" transform="translate(-5.698 -3.668)"/><path class="a" d="M40.783,8.651a.568.568,0,0,0-.8.8,8.524,8.524,0,0,1,0,12.042.568.568,0,1,0,.8.8,9.659,9.659,0,0,0,0-13.647Z" transform="translate(-17.505 -3.668)"/><path class="a" d="M26.473,14a3.971,3.971,0,0,0-.568,7.9V38.976a.568.568,0,0,0,1.135,0V21.9a3.971,3.971,0,0,0-.568-7.9Zm0,6.812a2.838,2.838,0,1,1,2.838-2.838A2.841,2.841,0,0,1,26.473,20.812Z" transform="translate(-10.019 -6.053)"/><ellipse class="a" cx="3" cy="3.5" rx="3" ry="3.5" transform="translate(13.468 8.246)"/></g></svg>