<?xml version="1.0" encoding="UTF-8"?>
<svg width="16px" height="16px" viewBox="0 0 16 16" version="1.1" xmlns="http://www.w3.org/2000/svg" xmlns:xlink="http://www.w3.org/1999/xlink">
    <!-- Generator: Sketch 52.6 (67491) - http://www.bohemiancoding.com/sketch -->
    <title>fevicon@1x</title>
    <desc>Created with Sketch.</desc>
    <defs>
        <path d="M10.1347821,2.41625993 C9.36040795,2.41625993 8.73040997,2.96494789 8.73040997,3.63940033 L8.73040997,12.3605997 C8.73040997,13.8159746 7.44508485,15 5.86519206,15 C4.28532512,15 3,13.8159746 3,12.3605997 L3,8.07032437 L4.46081994,8.64474657 L4.46081994,12.3605997 C4.46081994,13.0350521 5.09081792,13.5837401 5.86519206,13.5837401 C6.63959205,13.5837401 7.26959003,13.0350521 7.26959003,12.3605997 L7.26959003,3.63940033 C7.26959003,2.18402537 8.55491515,1 10.1347821,1 C11.7146749,1 13,2.18402537 13,3.63940033 L13,7.40992928 L11.5391801,7.98432642 L11.5391801,3.63940033 C11.5391801,2.96494789 10.9091821,2.41625993 10.1347821,2.41625993 Z M11,3.5 C11,3.77613554 10.7761355,4 10.5,4 C10.2238645,4 10,3.77613554 10,3.5 C10,3.22386446 10.2238645,3 10.5,3 C10.7761355,3 11,3.22386446 11,3.5 Z" id="path-1"></path>
    </defs>
    <g id="fevicon" stroke="none" stroke-width="1" fill="none" fill-rule="evenodd">
        <mask id="mask-2" fill="white">
            <use xlink:href="#path-1"></use>
        </mask>
        <use id="Combined-Shape" fill="#379ECC" xlink:href="#path-1"></use>
    </g>
</svg>