<svg id="Layer_1" enable-background="new 0 0 512 512" height="512" viewBox="0 0 512 512" width="512" xmlns="http://www.w3.org/2000/svg"><path d="m29.824 170.142-29.824-3.282c6.709-60.82 35.317-117.334 80.537-159.126l20.361 22.031c-39.917 36.9-65.156 86.749-71.074 140.377z" fill="#fff7cc"/><path d="m89.458 176.763-29.824-3.281c5.684-51.533 31.216-97.896 71.895-130.562l18.779 23.379c-34.439 27.656-56.045 66.885-60.85 110.464z" fill="#fff7cc"/><path d="m482.176 170.142c-5.918-53.628-31.157-103.477-71.074-140.376l20.361-22.031c45.22 41.791 73.828 98.305 80.537 159.125z" fill="#ffe6b3"/><path d="m421.542 176.763c-4.805-43.579-26.411-82.808-60.85-110.464l18.779-23.379c40.679 32.666 66.211 79.028 71.895 130.562z" fill="#ffe6b3"/><path d="m256 437h-45v30c0 24.814 20.186 45 45 45s45-20.186 45-45v-30z" fill="#f6d401"/><path d="m301 467v-30h-45v75c24.814 0 45-20.186 45-45z" fill="#fd9d34"/><path d="m256 0c-24.814 0-45 20.186-45 45s20.186 45 45 45 45-20.186 45-45-20.186-45-45-45zm0 60c-8.276 0-15-6.724-15-15s6.724-15 15-15 15 6.724 15 15-6.724 15-15 15z" fill="#fd9d34"/><path d="m301 45c0-24.814-20.186-45-45-45v30c8.276 0 15 6.724 15 15s-6.724 15-15 15v30c24.814 0 45-20.186 45-45z" fill="#ec5b20"/><path d="m410.277 346.063c-12.246-11.324-19.277-27.378-19.277-44.063v-107c0-74.443-60.557-135-135-135s-135 60.557-135 135v107c0 16.919-6.841 32.563-19.277 44.063-14.733 13.624-25.287 29.335-32.123 45.937l21.4 30h165 165l21.361-30c-6.835-16.595-17.355-32.314-32.084-45.937z" fill="#f6d401"/><path d="m442.361 392c-6.835-16.595-17.355-32.314-32.084-45.938-12.246-11.323-19.277-27.377-19.277-44.062v-107c0-74.443-60.557-135-135-135v362h165z" fill="#fd9d34"/><path d="m450.487 422c-1.036-10.248-4.105-20.237-8.126-30h-186.361-186.4c-5.35 12.993-8.6 26.494-8.6 40.225v19.775h195 195v-30z" fill="#fd9d34"/><path d="m451 422h-.513c-1.036-10.248-4.105-20.237-8.126-30h-186.361v60h195z" fill="#ec5b20"/></svg>