<?xml version="1.0" encoding="UTF-8"?>
<svg width="249px" height="267px" viewBox="0 0 249 267" version="1.1" xmlns="http://www.w3.org/2000/svg" xmlns:xlink="http://www.w3.org/1999/xlink">
    <!-- Generator: Sketch 52.6 (67491) - http://www.bohemiancoding.com/sketch -->
    <title>Smart_Loo_Logo</title>
    <desc>Created with Sketch.</desc>
    <defs>
        <path d="M107.972208,192.206485 C106.490472,190.132956 104.502768,189.095321 102.007358,189.095321 C100.992294,189.095321 99.9980944,189.349336 99.0251071,189.857367 C98.0514244,190.365049 97.5656262,191.190424 97.5656262,192.333145 C97.5656262,193.264998 97.9672703,193.942488 98.7716018,194.364918 C99.5745424,194.788741 100.589607,195.148886 101.817142,195.444657 C103.043287,195.741124 104.365061,196.047682 105.782813,196.365027 C107.199522,196.68272 108.520948,197.169873 109.748484,197.825441 C110.974976,198.482053 111.989693,199.380849 112.794024,200.523917 C113.597313,201.666986 114,203.233529 114,205.222155 C114,207.042713 113.60844,208.577591 112.825669,209.825397 C112.04255,211.074595 111.027486,212.079521 109.780129,212.841567 C108.532424,213.603264 107.125104,214.153747 105.560605,214.49197 C103.995062,214.830541 102.429867,215 100.865367,215 C98.495841,215 96.3179213,214.660733 94.3298698,213.984287 C92.3411228,213.307841 90.5644995,212.079521 89,210.301763 L94.0760168,205.539848 C95.0486563,206.64116 96.0953653,207.539956 97.2168391,208.237976 C98.3372698,208.936344 99.7011211,209.285702 101.309784,209.285702 C101.858524,209.285702 102.429867,209.222372 103.022423,209.095016 C103.61463,208.968357 104.165109,208.757141 104.672467,208.460326 C105.179825,208.164903 105.592597,207.793624 105.910087,207.349271 C106.22723,206.90457 106.385801,206.386797 106.385801,205.793863 C106.385801,204.736394 105.983114,203.952427 105.179825,203.444396 C104.375494,202.936366 103.360777,202.524026 102.134285,202.206333 C100.906749,201.888988 99.5853224,201.593565 98.168614,201.317628 C96.7508624,201.043083 95.4290881,200.598034 94.2029433,199.984222 C92.9754076,199.371106 91.9603433,198.514065 91.1574028,197.412753 C90.3530713,196.312484 89.9514271,194.788741 89.9514271,192.841175 C89.9514271,191.148668 90.300562,189.677816 90.9988316,188.428966 C91.6967535,187.180812 92.6168837,186.153964 93.7588744,185.349119 C94.9005174,184.546013 96.211164,183.952731 97.6929005,183.571708 C99.173246,183.190685 100.675152,183 102.197574,183 C104.22805,183 106.236967,183.349358 108.225366,184.047726 C110.213417,184.746442 111.820689,185.942401 113.048225,187.635255 L107.972208,192.206485 Z M190.94304,200.587247 L189.409167,200.587247 C188.386137,200.587247 187.240693,200.630047 185.972834,200.714255 C184.70464,200.799854 183.507741,201.000283 182.383484,201.317628 C181.257545,201.634973 180.306147,202.101247 179.529962,202.714363 C178.751759,203.328523 178.363667,204.185564 178.363667,205.285832 C178.363667,206.005774 178.517021,206.609147 178.823728,207.095256 C179.130435,207.582408 179.529962,207.995096 180.020627,208.333319 C180.511291,208.672934 181.063835,208.915814 181.677586,209.0637 C182.291337,209.212281 182.904752,209.285702 183.518503,209.285702 C186.054556,209.285702 187.926076,208.661799 189.1334,207.412601 C190.339042,206.164795 190.94304,204.460457 190.94304,202.301676 L190.94304,200.587247 Z M191.372834,210.047747 L191.188877,210.047747 C190.124818,211.78375 188.774566,213.042691 187.139129,213.825615 C185.502012,214.60819 183.70246,215 181.738457,215 C180.388877,215 179.069565,214.809315 177.781192,214.42864 C176.492147,214.047617 175.346366,213.476257 174.344523,212.714559 C173.34167,211.952166 172.534209,211.00013 171.920458,209.85741 C171.307044,208.71469 171,207.381284 171,205.857541 C171,204.206442 171.285857,202.799963 171.859251,201.634973 C172.431637,200.471374 173.198742,199.498113 174.160565,198.714146 C175.121044,197.93157 176.236221,197.307667 177.504752,196.841741 C178.772274,196.376162 180.091923,196.026804 181.463025,195.793667 C182.832783,195.561922 184.213639,195.412992 185.60492,195.349314 C186.995192,195.285985 188.304752,195.25432 189.531918,195.25432 L191.372834,195.25432 L191.372834,194.428596 C191.372834,192.52383 190.738233,191.09543 189.470711,190.143047 C188.20218,189.190664 186.586585,188.714298 184.622582,188.714298 C183.067522,188.714298 181.616379,188.999978 180.266127,189.571338 C178.916211,190.143047 177.749916,190.915531 176.768587,191.88914 L172.902796,187.888923 C174.537896,186.153964 176.451118,184.905114 178.639771,184.143068 C180.827751,183.381023 183.088709,183 185.42029,183 C187.50738,183 189.26523,183.243924 190.698213,183.730381 C192.12985,184.217533 193.31565,184.841436 194.257296,185.603482 C195.197932,186.365179 195.923672,187.244142 196.435187,188.238281 C196.946702,189.233115 197.314617,190.238041 197.539939,191.254102 C197.764589,192.269815 197.897428,193.254211 197.938793,194.206246 C197.978813,195.158977 198,195.995139 198,196.714385 L198,214.238302 L191.372834,214.238302 L191.372834,210.047747 Z M164.883971,191.131268 C165.258667,192.689024 165.44516,194.361512 165.44516,196.146683 L165.44516,213.966293 L157.96628,213.966293 L157.96628,197.019122 C157.96628,196.106049 157.882597,195.223024 157.716938,194.371073 C157.550597,193.520146 157.259243,192.772341 156.844926,192.128341 C156.42856,191.484683 155.867712,190.975561 155.1617,190.601659 C154.454663,190.227756 153.540979,190.040976 152.419626,190.040976 C151.255576,190.040976 150.26914,190.258829 149.458951,190.694878 C148.649103,191.131268 147.983395,191.713463 147.46456,192.439756 C146.9447,193.167073 146.571029,193.997171 146.342864,194.931756 C146.114016,195.866341 146.000276,196.811512 146.000276,197.766585 L146.000276,213.966293 L138.521053,213.966293 L138.521053,196.146683 C138.521053,194.277512 138.125523,192.793171 137.336852,191.691951 C136.547498,190.592098 135.238284,190.040976 133.410576,190.040976 C132.16421,190.040976 131.114243,190.249268 130.263407,190.663805 C129.411206,191.079366 128.705193,191.64039 128.144004,192.346195 C127.583498,193.053024 127.178062,193.862976 126.929403,194.776049 C126.67972,195.690146 126.555049,196.64522 126.555049,197.642293 L126.555049,213.933171 L119.076169,216.964341 L119.076169,187.114976 L126.181037,184.234732 L126.181037,188.732488 L126.306049,188.732488 C126.970049,187.320537 128.040169,186.064293 129.515383,184.962732 C130.989914,183.862878 132.974058,183.311756 135.467132,183.311756 C140.162267,183.311756 143.278354,185.160439 144.815733,188.85678 C145.896099,186.946976 147.246642,185.544927 148.866679,184.651317 C150.487399,183.758732 152.419626,183.311756 154.663358,183.311756 C156.657407,183.311756 158.340292,183.645024 159.711329,184.308488 C161.082708,184.973659 162.193473,185.887756 163.045333,187.050098 C163.896852,188.213805 164.5103,189.573512 164.883971,191.131268 Z M139.970992,251.299171 C139.970992,252.462195 140.168074,253.583902 140.562922,254.663268 C140.957086,255.744 141.539111,256.699073 142.308313,257.529512 C143.07649,258.360976 144.000078,259.02478 145.081128,259.523317 C146.161494,260.021854 147.387366,260.27078 148.758745,260.27078 C150.130123,260.27078 151.355313,260.021854 152.436021,259.523317 C153.515704,259.02478 154.439634,258.360976 155.208835,257.529512 C155.977695,256.699073 156.559037,255.744 156.954568,254.663268 C157.348733,253.583902 157.546156,252.462195 157.546156,251.299171 C157.546156,250.136488 157.348733,249.015122 156.954568,247.93439 C156.559037,246.854683 155.977695,245.899951 155.208835,245.068488 C154.439634,244.238049 153.515704,243.57322 152.436021,243.074683 C151.355313,242.576146 150.130123,242.326878 148.758745,242.326878 C147.387366,242.326878 146.161494,242.576146 145.081128,243.074683 C144.000078,243.57322 143.07649,244.238049 142.308313,245.068488 C141.539111,245.899951 140.957086,246.854683 140.562922,247.93439 C140.168074,249.015122 139.970992,250.136488 139.970992,251.299171 Z M132.492453,251.299171 C132.492453,248.931122 132.9177,246.78161 133.769901,244.850293 C134.620737,242.918976 135.773856,241.267659 137.228576,239.897024 C138.682613,238.526049 140.407169,237.467171 142.40156,236.719366 C144.395951,235.971902 146.515354,235.598 148.758745,235.598 C151.001794,235.598 153.121198,235.971902 155.115588,236.719366 C157.110321,237.467171 158.833852,238.526049 160.288572,239.897024 C161.742609,241.267659 162.895387,242.918976 163.747588,244.850293 C164.598765,246.78161 165.025037,248.931122 165.025037,251.299171 C165.025037,253.666537 164.598765,255.816049 163.747588,257.747366 C162.895387,259.679024 161.742609,261.330341 160.288572,262.700634 C158.833852,264.07161 157.110321,265.130829 155.115588,265.878293 C153.121198,266.626098 151.001794,267 148.758745,267 C146.515354,267 144.395951,266.626098 142.40156,265.878293 C140.407169,265.130829 138.682613,264.07161 137.228576,262.700634 C135.773856,261.330341 134.620737,259.679024 133.769901,257.747366 C132.9177,255.816049 132.492453,253.666537 132.492453,251.299171 Z M176.815819,251.299171 C176.815819,252.462195 177.01256,253.583902 177.407407,254.663268 C177.801914,255.744 178.383597,256.699073 179.152798,257.529512 C179.920975,258.360976 180.844905,259.02478 181.925955,259.523317 C183.006321,260.021854 184.231852,260.27078 185.60323,260.27078 C186.974609,260.27078 188.199798,260.021854 189.280848,259.523317 C190.360531,259.02478 191.284119,258.360976 192.053663,257.529512 C192.822181,256.699073 193.403523,255.744 193.799053,254.663268 C194.193218,253.583902 194.390984,252.462195 194.390984,251.299171 C194.390984,250.136488 194.193218,249.015122 193.799053,247.93439 C193.403523,246.854683 192.822181,245.899951 192.053663,245.068488 C191.284119,244.238049 190.360531,243.57322 189.280848,243.074683 C188.199798,242.576146 186.974609,242.326878 185.60323,242.326878 C184.231852,242.326878 183.006321,242.576146 181.925955,243.074683 C180.844905,243.57322 179.920975,244.238049 179.152798,245.068488 C178.383597,245.899951 177.801914,246.854683 177.407407,247.93439 C177.01256,249.015122 176.815819,250.136488 176.815819,251.299171 Z M169.336938,251.299171 C169.336938,248.931122 169.762527,246.78161 170.614387,244.850293 C171.465222,242.918976 172.618683,241.267659 174.073403,239.897024 C175.52744,238.526049 177.251654,237.467171 179.246387,236.719366 C181.240778,235.971902 183.35984,235.598 185.60323,235.598 C187.846621,235.598 189.966025,235.971902 191.960416,236.719366 C193.954807,237.467171 195.678679,238.526049 197.133058,239.897024 C198.587436,241.267659 199.739872,242.918976 200.592074,244.850293 C201.443593,246.78161 201.869523,248.931122 201.869523,251.299171 C201.869523,253.666537 201.443593,255.816049 200.592074,257.747366 C199.739872,259.679024 198.587436,261.330341 197.133058,262.700634 C195.678679,264.07161 193.954807,265.130829 191.960416,265.878293 C189.966025,266.626098 187.846621,267 185.60323,267 C183.35984,267 181.240778,266.626098 179.246387,265.878293 C177.251654,265.130829 175.52744,264.07161 174.073403,262.700634 C172.618683,261.330341 171.465222,259.679024 170.614387,257.747366 C169.762527,255.816049 169.336938,253.666537 169.336938,251.299171 Z M119,222.04842 L126,219 L126,266 L119,266 L119,222.04842 Z M205,186.931027 L212.426539,183.865351 L212.426539,188.545013 L212.550343,188.545013 C213.375589,186.780471 214.551218,185.4158 216.078246,184.449273 C217.604595,183.483436 219.35854,183 221.338725,183 C221.79222,183 222.236557,183.042473 222.669362,183.126039 C223.102846,183.210985 223.545487,183.315269 224,183.441308 L224,190.750173 C223.38132,190.582697 222.772137,190.445953 222.174147,190.340633 C221.576157,190.236004 220.987664,190.182826 220.410704,190.182826 C218.677788,190.182826 217.285418,190.5088 216.233255,191.159712 C215.180752,191.811315 214.376196,192.556843 213.819248,193.39664 C213.262639,194.237129 212.890549,195.076927 212.705013,195.916724 C212.519816,196.757558 212.426539,197.387406 212.426539,197.80696 L212.426539,214 L205,214 L205,186.931027 Z M249,213.011248 C248.206152,213.382157 247.234366,213.639253 246.086018,213.783552 C244.935608,213.927512 243.923288,214 243.045624,214 C241.039535,214 239.399282,213.783552 238.125552,213.350994 C236.850449,212.918436 235.847404,212.259606 235.117105,211.37315 C234.385089,210.48771 233.883566,209.385822 233.612538,208.066469 C233.340136,206.748471 233.205137,205.22351 233.205137,203.492939 L233.205137,189.895306 L227,189.895306 L227,183.591205 L233.205137,183.591205 L233.205137,177.782666 L240.165649,175 L240.726255,175 L240.726255,183.591205 L249,183.591205 L249,189.895306 L240.726255,189.895306 L240.726255,202.874757 C240.726255,204.358055 241.008619,205.532431 241.57266,206.397886 C242.136701,207.263002 243.254477,207.695899 244.92599,207.695899 C245.59377,207.695899 246.325787,207.624427 247.119978,207.47945 C247.912796,207.33549 248.539699,207.099057 249,206.768456 L249,213.011248 Z M99.4273873,25.3811613 C127.935079,25.3811613 154.702463,38.5737634 172.053482,60.9152688 L164.699387,63.9105376 C148.763632,44.452129 124.852463,33.0171183 99.4273873,33.0171183 C74.002654,33.0171183 50.0921704,44.452129 34.1564148,63.9105376 L26.8023201,60.9152688 C44.1533391,38.5737634 70.9200379,25.3811613 99.4273873,25.3811613 Z M99.4273873,0.280430108 C138.870489,0.280430108 175.461828,18.7237849 198.85546,49.9987957 L191.541781,52.9778925 C169.539437,24.6018065 135.778282,7.9163871 99.4273873,7.9163871 C63.0771773,7.9163871 29.3160224,24.6018065 7.31402065,52.9778925 L1.27897692e-12,49.9987957 C23.3936317,18.7237849 59.9846282,0.280430108 99.4273873,0.280430108 Z M99.4996582,50 C116.946912,50 133.43642,58.1916006 144,72.0036603 L136.65762,75 C127.502973,64.0649081 113.879526,57.6343021 99.4996582,57.6343021 C85.1197903,57.6343021 71.4966856,64.0649081 62.3423804,75 L55,72.0040043 C65.5632383,58.1916006 82.052746,50 99.4996582,50 Z M99.1572713,94.5122147 C88.9380155,94.5122147 80.624062,102.033188 80.624062,111.278039 L80.624062,230.821224 C80.624062,250.770333 63.6618915,267 42.8123721,267 C21.9631938,267 5.00102326,250.770333 5.00102326,230.821224 L5.00102326,172.013581 L24.2791628,179.887299 L24.2791628,230.821224 C24.2791628,240.066075 32.5931163,247.587048 42.8123721,247.587048 C53.031969,247.587048 61.3459225,240.066075 61.3459225,230.821224 L61.3459225,111.278039 C61.3459225,91.3289302 78.308093,75.099263 99.1572713,75.099263 C120.006791,75.099263 136.968961,91.3289302 136.968961,111.278039 L136.968961,162.961417 L117.690822,170.834791 L117.690822,111.278039 C117.690822,102.033188 109.376868,94.5122147 99.1572713,94.5122147 Z M108,111.5 C108,116.194304 104.194304,120 99.5,120 C94.8056957,120 91,116.194304 91,111.5 C91,106.805696 94.8056957,103 99.5,103 C104.194304,103 108,106.805696 108,111.5 Z" id="path-1"></path>
    </defs>
    <g id="Smart_Loo_Logo" stroke="none" stroke-width="1" fill="none" fill-rule="evenodd">
        <mask id="mask-2" fill="white">
            <use xlink:href="#path-1"></use>
        </mask>
        <use id="Combined-Shape" fill="#379ECC" xlink:href="#path-1"></use>
        <g id="color/smartloo_black" mask="url(#mask-2)" fill="#000000">
            <g transform="translate(-1.000000, 0.000000)" id="Rectangle">
                <rect x="0" y="0" width="251" height="267"></rect>
            </g>
        </g>
    </g>
</svg>